<svg height="512" viewBox="0 0 64 64" width="512" xmlns="http://www.w3.org/2000/svg"><g id="Cash_On_Delivery" data-name="Cash On Delivery"><path d="m28.10254 5.17676h-21a3.00328 3.00328 0 0 0 -3 3v21a3.00328 3.00328 0 0 0 3 3h21a3.00328 3.00328 0 0 0 3-3v-21a3.00328 3.00328 0 0 0 -3-3zm-7 2v6.415l-.502.21582c-1.72818-.7437-1.27517-.7442-3.002 0-1.72115-.74178-1.2673-.74645-2.99853 0l-.49756-.21485v-6.416zm-14 0h5v7.07324a.99964.99964 0 0 0 .60351.918c2.18879.94488 1.61708.93664 3.39307.1709 1.724.743 1.26967.74518 2.99951 0 1.8015.77559 1.23132.76329 3.39942-.16992a1.00114 1.00114 0 0 0 .60449-.919v-7.07322h5a1.001 1.001 0 0 1 1 1v17.52148h-23v-17.52148a1.001 1.001 0 0 1 1-1zm21 23h-21a1.001 1.001 0 0 1 -1-1v-1.47852h23v1.47852a1.001 1.001 0 0 1 -1 1z"/><path d="m6.93408 19.5957v-5.2187a1 1 0 0 1 2 0v5.2187a1 1 0 0 1 -2 0z"/><path d="m6.93408 11.76855v-.87011a1 1 0 0 1 2 0v.87011a1 1 0 0 1 -2 0z"/><path d="m58.55566 58.82324h-34.62158a1.34191 1.34191 0 0 1 -1.34179-1.33886v-15.61622a1.34191 1.34191 0 0 1 1.34179-1.33886h34.62158a1.34191 1.34191 0 0 1 1.3418 1.33886v15.61622a1.34191 1.34191 0 0 1 -1.3418 1.33886zm-33.96337-2h33.30517v-14.29394h-33.30517zm27.94189-.71582h-22.57861a1.3239 1.3239 0 0 1 -1.27735-.97461 1.91768 1.91768 0 0 0 -1.57373-1.32715 1.31006 1.31006 0 0 1 -1.11767-1.28125v-5.69628a1.31007 1.31007 0 0 1 1.11572-1.28125 1.91813 1.91813 0 0 0 1.57617-1.32911 1.3234 1.3234 0 0 1 1.27686-.97265h22.57861a1.32388 1.32388 0 0 1 1.27734.97461 1.91769 1.91769 0 0 0 1.57373 1.32715 1.31007 1.31007 0 0 1 1.11768 1.28125v5.69628a1.31008 1.31008 0 0 1 -1.11572 1.28125h-.002a1.91806 1.91806 0 0 0 -1.57421 1.32911 1.3234 1.3234 0 0 1 -1.27682.97265zm-22.10352-2h21.62842a3.9269 3.9269 0 0 1 2.44385-2.14355v-4.5752a3.92443 3.92443 0 0 1 -2.44385-2.14355h-21.62842a3.92565 3.92565 0 0 1 -2.44384 2.14355v4.5752a3.92441 3.92441 0 0 1 2.44384 2.14355z"/><path d="m41.24512 53.56152a3.88525 3.88525 0 1 1 3.88476-3.88476 3.88955 3.88955 0 0 1 -3.88476 3.88476zm0-5.7705a1.88525 1.88525 0 1 0 1.88476 1.88574 1.88747 1.88747 0 0 0 -1.88476-1.88576z"/><path d="m32.41846 52.374a2.69775 2.69775 0 1 1 2.69726-2.69726 2.70028 2.70028 0 0 1 -2.69726 2.69726zm0-3.3955a.69775.69775 0 1 0 .69726.69824.69883.69883 0 0 0 -.69726-.69822z"/><path d="m50.07129 52.374a2.69775 2.69775 0 1 1 2.69726-2.69726 2.70028 2.70028 0 0 1 -2.69726 2.69726zm0-3.3955a.69775.69775 0 1 0 .69726.69824.69883.69883 0 0 0 -.69726-.69822z"/><path d="m18.5874 46.25781a19.16627 19.16627 0 0 1 -5.63476-8.10833l1.87109.912a1.00042 1.00042 0 0 0 .876-1.79882l-3.68994-1.79786a1.33845 1.33845 0 0 0 -1.78858.62207l-1.85793 3.80473a.99976.99976 0 0 0 1.79688.877l.925-1.89367a20.858 20.858 0 0 0 6.21418 8.91223.99975.99975 0 0 0 1.28806-1.52935z"/><path d="m46.95117 28.48438-.82434 1.93975a20.86288 20.86288 0 0 0 -6.67126-8.5755 1.00044 1.00044 0 0 0 -1.207 1.59571 18.86749 18.86749 0 0 1 6.05783 7.80466l-1.92212-.81543a1.00036 1.00036 0 0 0 -.78125 1.8418l3.78418 1.60449a1.341 1.341 0 0 0 1.749-.71777l1.65579-3.89646a.9999.9999 0 0 0 -1.84083-.78125z"/></g></svg>