<svg width="61" height="61" viewBox="0 0 61 61" fill="none" xmlns="http://www.w3.org/2000/svg">
<g clip-path="url(#clip0_14_637)">
<path d="M19.2885 34.2979C14.8776 34.2979 11.3687 37.9256 11.3687 42.2588C11.3687 46.592 14.9767 50.2198 19.2885 50.2198C23.6004 50.2198 27.2084 46.592 27.2084 42.2588C27.3075 37.9256 23.6995 34.2979 19.2885 34.2979ZM19.2885 47.8013C16.2752 47.8013 13.8765 45.3827 13.8765 42.3596C13.8765 39.3364 16.2851 36.9179 19.2885 36.9179C22.2919 36.9179 24.7006 39.3364 24.7006 42.3596C24.7997 45.3827 22.2919 47.8013 19.2885 47.8013Z" fill="white"/>
<path d="M36.7342 39.4375L32.6207 38.5305C32.3233 37.5228 31.9169 36.5151 31.4213 35.6082L33.7308 31.9804C34.0282 31.4765 33.9291 30.8719 33.5326 30.368L31.223 28.0503C30.8265 27.6472 30.1228 27.5464 29.6172 27.8487L26.0092 30.1665C25.1072 29.6626 24.106 29.2595 23.1049 28.9572L22.2029 24.8256C22.1038 24.221 21.5982 23.8179 21.0035 23.8179H17.6928C17.0882 23.8179 16.5926 24.221 16.4934 24.8256L15.5914 29.058C14.5903 29.3603 13.5891 29.7634 12.6871 30.2673L9.07907 27.9495C8.57354 27.6472 7.97881 27.748 7.47328 28.1511L5.16373 30.368C4.76724 30.7711 4.65821 31.4765 4.96549 31.9804L7.27504 35.6082C6.76952 36.5151 6.37303 37.5228 6.07566 38.5305L1.86295 39.4375C1.25831 39.5383 0.861816 40.0421 0.861816 40.6468V43.9722C0.861816 44.5769 1.25831 45.0807 1.86295 45.1815L5.97654 46.0884C6.2739 47.0961 6.68031 48.1039 7.17592 49.0108L4.86636 52.6386C4.569 53.1425 4.66812 53.7471 5.06461 54.2509L7.37416 56.5687C7.77065 56.9718 8.47442 57.0725 8.97995 56.7702L12.588 54.4525C13.49 54.9563 14.4912 55.3594 15.4923 55.6617L16.3943 59.7934C16.4934 60.398 16.999 60.8011 17.5937 60.8011H20.9044C21.509 60.8011 22.0046 60.398 22.1038 59.7934L23.0058 55.6617C24.0069 55.3594 25.008 54.9563 25.9101 54.4525L29.5181 56.7702C30.0236 57.0725 30.6184 56.9718 31.1239 56.5687L33.4335 54.2509C33.8399 53.8479 33.939 53.1425 33.6317 52.6386L31.3221 49.0108C31.8277 48.1039 32.2242 47.0961 32.5215 46.0884L36.6351 45.1815C37.2398 45.0807 37.6362 44.5769 37.6362 43.9722V40.6468C37.7354 40.0421 37.3389 39.5383 36.7342 39.4375ZM35.2276 42.9645L31.3122 43.8715C30.8067 43.9722 30.5093 44.3753 30.4102 44.7784C30.1129 46.0884 29.6073 47.2977 28.9036 48.4062C28.6062 48.8093 28.6062 49.3131 28.9036 49.7162L31.114 53.1425L30.212 54.0494L26.8022 51.8324C26.3958 51.5301 25.9002 51.5301 25.4937 51.8324C24.3935 52.5378 23.1842 53.0417 21.8857 53.344C21.3802 53.4448 21.0828 53.8479 20.9837 54.2509L20.0817 58.181H18.7832L17.8811 54.2509C17.782 53.7471 17.3756 53.4448 16.9791 53.344C15.6806 53.0417 14.4713 52.5378 13.3711 51.8324C12.9746 51.5301 12.4691 51.5301 12.0627 51.8324L8.65284 54.0494L7.75083 53.1425L9.96126 49.7162C10.2586 49.3131 10.2586 48.8093 9.96126 48.4062C9.25749 47.2977 8.76188 46.0884 8.4546 44.7784C8.35547 44.2745 7.94907 43.9722 7.55258 43.8715L3.63725 42.9645V41.6545L7.55258 40.7475C8.05811 40.6468 8.35547 40.2437 8.4546 39.8406C8.75196 38.5305 9.25749 37.3213 9.96126 36.2128C10.2586 35.8097 10.2586 35.3059 9.96126 34.9028L7.75083 31.4765L8.65284 30.5696L12.0627 32.7866C12.4691 33.0889 12.9647 33.0889 13.3711 32.7866C14.4713 32.0812 15.6806 31.5773 16.9791 31.275C17.4847 31.1742 17.782 30.7711 17.8811 30.368L18.7832 26.4379H20.0817L20.9837 30.368C21.0828 30.8719 21.4892 31.1742 21.8857 31.275C23.1941 31.5773 24.3935 32.0812 25.4937 32.7866C25.8902 33.0889 26.3958 33.0889 26.8022 32.7866L30.212 30.5696L31.114 31.4765L28.9036 34.9028C28.6062 35.3059 28.6062 35.8097 28.9036 36.2128C29.6073 37.3213 30.1029 38.5305 30.4102 39.8406C30.5093 40.3444 30.9157 40.6468 31.3122 40.7475L35.2276 41.6545V42.9645Z" fill="white"/>
<path d="M44.6639 9.91113C40.8576 9.91113 37.646 13.0351 37.646 16.9652C37.646 20.8953 40.7584 24.0192 44.6639 24.0192C48.5693 24.0192 51.6817 20.8953 51.6817 16.9652C51.5826 13.0351 48.4702 9.91113 44.6639 9.91113ZM44.6639 21.3991C42.1561 21.3991 40.1538 19.3837 40.1538 16.8644C40.1538 14.3451 42.1561 12.3297 44.6639 12.3297C47.1717 12.3297 49.1739 14.3451 49.1739 16.8644C49.0748 19.3837 47.0725 21.3991 44.6639 21.3991Z" fill="white"/>
<path d="M59.6014 14.2444L56.1916 13.4383C55.9933 12.6321 55.5869 11.8259 55.1905 11.1205L57.0936 8.09736C57.391 7.5935 57.2918 6.98887 56.8954 6.48501L54.8931 4.46958C54.4966 4.06649 53.7928 3.96572 53.2873 4.26804L50.274 6.1827C49.5702 5.77961 48.7673 5.4773 47.9644 5.17498L47.2607 1.84951C47.1615 1.24488 46.656 0.841797 46.0613 0.841797H43.2561C42.6515 0.841797 42.1559 1.24488 42.0567 1.84951L41.2538 5.37652C40.4509 5.57807 39.648 5.98116 38.9443 6.38424L35.931 4.46958C35.4254 4.16726 34.8307 4.26804 34.3252 4.67112L32.3229 6.68656C31.9264 7.08964 31.8174 7.79505 32.1247 8.29891L34.0278 11.3221C33.6313 12.0275 33.324 12.8336 33.0267 13.6398L29.716 14.2444C29.1113 14.3452 28.7148 14.8491 28.7148 15.4537V18.2753C28.7148 18.8799 29.1113 19.3838 29.716 19.4846L33.1258 20.2907C33.324 21.0969 33.7304 21.9031 34.1269 22.6085L32.2238 25.6316C31.9264 26.1355 32.0255 26.7401 32.422 27.244L34.4243 29.2594C34.8307 29.6625 35.5246 29.7633 36.0301 29.461L39.0335 27.5463C39.7373 27.9494 40.5402 28.2517 41.343 28.554L42.1459 31.9803C42.2451 32.5849 42.7506 32.988 43.3453 32.988H46.1505C46.7551 32.988 47.2507 32.5849 47.3499 31.9803L48.1528 28.554C48.9557 28.3525 49.7585 27.9494 50.4623 27.5463L53.4756 29.461C53.9812 29.7633 54.5759 29.6625 55.0814 29.2594L57.0837 27.244C57.4802 26.8409 57.5892 26.1355 57.2819 25.6316L55.3788 22.6085C55.7753 21.9031 56.0826 21.0969 56.3799 20.2907L59.7897 19.4846C60.3944 19.3838 60.7909 18.8799 60.7909 18.2753V15.4537C60.5926 14.8491 60.0871 14.3452 59.5915 14.2444H59.6014ZM58.0947 17.2676L54.8832 17.973C54.3776 18.0738 54.0803 18.4769 53.9812 18.8799C53.7829 19.9884 53.2774 20.9961 52.7818 21.9031C52.4844 22.3062 52.4844 22.81 52.7818 23.2131L54.5858 26.0347L53.9812 26.6394L51.176 24.8255C50.7795 24.5232 50.274 24.5232 49.8775 24.8255C48.9755 25.4301 47.9743 25.8332 46.8642 26.0347C46.3586 26.1355 46.0613 26.5386 45.9622 26.9417L45.0601 30.3679H44.2572L43.5535 27.1432C43.4544 26.6394 43.048 26.337 42.6515 26.2363C41.5512 26.0347 40.5501 25.5309 39.6481 25.027C39.2417 24.7247 38.746 24.7247 38.3396 25.027L35.5345 26.8409L34.9298 26.2363L36.7338 23.4147C37.0312 23.0116 37.0312 22.5077 36.7338 22.1046C36.1292 21.1977 35.7327 20.19 35.5345 19.0815C35.4353 18.5776 35.0289 18.2753 34.6325 18.1745L31.2226 17.2676V16.4614L34.4342 15.756C34.9397 15.6552 35.2371 15.2522 35.3362 14.8491C35.5345 13.7406 36.04 12.7329 36.5356 11.8259C36.833 11.4228 36.833 10.919 36.5356 10.5159L34.7316 7.69428L35.3362 7.08964L38.1414 8.90354C38.5379 9.20585 39.0434 9.20585 39.4498 8.90354C40.3518 8.29891 41.353 7.89582 42.4532 7.69428C42.9587 7.5935 43.2561 7.19042 43.3552 6.78733L44.059 3.56263H44.8619L45.5657 6.78733C45.6648 7.29119 46.0712 7.5935 46.4677 7.69428C47.5679 7.89582 48.5691 8.39968 49.4711 8.90354C49.8775 9.20585 50.3731 9.20585 50.7795 8.90354L53.5847 7.08964L54.1893 7.69428L52.3853 10.5159C52.0879 10.919 52.0879 11.4228 52.3853 11.8259C52.9899 12.7329 53.3864 13.7406 53.5847 14.8491C53.6838 15.3529 54.0902 15.6552 54.4867 15.756L57.6983 16.4614V17.2676H58.1047H58.0947Z" fill="white"/>
<path d="M7.66128 22.6084C9.76268 22.6084 11.4676 20.8952 11.4676 18.779C11.4676 16.6628 9.76268 14.9497 7.66128 14.9497C5.55989 14.9497 3.85498 16.6628 3.85498 18.779C3.85498 20.8952 5.55989 22.6084 7.66128 22.6084ZM7.66128 17.5698C8.36505 17.5698 8.95979 18.1744 8.95979 18.8798C8.95979 19.5852 8.35514 20.1898 7.66128 20.1898C6.96743 20.1898 6.35287 19.5852 6.35287 18.8798C6.35287 18.1744 6.95751 17.5698 7.66128 17.5698Z" fill="white"/>
<path d="M21.499 12.5313C24.3042 12.5313 26.5146 10.3143 26.5146 7.49269C26.5146 4.67108 24.3042 2.4541 21.499 2.4541C18.6938 2.4541 16.4834 4.67108 16.4834 7.49269C16.4834 10.3143 18.6938 12.5313 21.499 12.5313ZM21.499 4.97339C22.9065 4.97339 24.0068 6.08188 24.0068 7.49269C24.0068 8.90349 22.9065 10.012 21.499 10.012C20.0915 10.012 18.9912 8.90349 18.9912 7.49269C18.9912 6.08188 20.0915 4.97339 21.499 4.97339Z" fill="white"/>
<path d="M49.0747 54.0493H44.0591V56.5686H49.0747V54.0493Z" fill="white"/>
<path d="M54.0903 51.5298H49.0747V54.0491H54.0903V51.5298Z" fill="white"/>
<path d="M54.0903 56.5684H49.0747V59.0877H54.0903V56.5684Z" fill="white"/>
<path d="M49.0747 49.0107H44.0591V51.53H49.0747V49.0107Z" fill="white"/>
<path d="M54.0903 46.4912H49.0747V49.0105H54.0903V46.4912Z" fill="white"/>
<path d="M49.0747 43.9722H44.0591V46.4915H49.0747V43.9722Z" fill="white"/>
<path d="M54.0903 41.4526H49.0747V43.9719H54.0903V41.4526Z" fill="white"/>
<path d="M49.0747 38.9336H44.0591V41.4529H49.0747V38.9336Z" fill="white"/>
<path d="M54.0903 36.4141H49.0747V38.9334H54.0903V36.4141Z" fill="white"/>
</g>
<defs>
<clipPath id="clip0_14_637">
<rect width="59.9592" height="59.9592" fill="white" transform="translate(0.841797 0.841797)"/>
</clipPath>
</defs>
</svg>
