<?xml version="1.0" encoding="iso-8859-1"?>
<!-- Generator: Adobe Illustrator 19.0.0, SVG Export Plug-In . SVG Version: 6.00 Build 0)  -->
<svg version="1.1" id="Layer_1" xmlns="http://www.w3.org/2000/svg" xmlns:xlink="http://www.w3.org/1999/xlink" x="0px" y="0px"
	 viewBox="0 0 512 512" style="enable-background:new 0 0 512 512;" xml:space="preserve">
<g>
	<g>
		<g>
			<path d="M277.558,129.347c-4.466,0-8.084,3.62-8.084,8.084v61.979h-35.032c-4.466,0-8.084,3.62-8.084,8.084
				c0,4.465,3.618,8.084,8.084,8.084h35.032v61.979c0,4.465,3.618,8.084,8.084,8.084c4.466,0,8.084-3.62,8.084-8.084v-61.979h78.147
				c4.466,0,8.084-3.62,8.084-8.084c0-4.465-3.618-8.084-8.084-8.084h-78.147v-61.979
				C285.642,132.967,282.024,129.347,277.558,129.347z"/>
			<path d="M471.579,215.579c4.466,0,8.084-3.62,8.084-8.084c0-4.465-3.618-8.084-8.084-8.084h-43.116
				c-4.466,0-8.084,3.62-8.084,8.084c0,4.465,3.618,8.084,8.084,8.084H471.579z"/>
			<path d="M482.358,102.4H266.779c-4.466,0-8.084,3.62-8.084,8.084c0,4.465,3.618,8.084,8.084,8.084h215.579
				c7.43,0,13.474,6.044,13.474,13.474v247.916c0,7.43-6.044,13.474-13.474,13.474h-78.147v-80.842h67.368
				c4.466,0,8.084-3.62,8.084-8.084c0-4.465-3.618-8.084-8.084-8.084h-67.368v-158.99c0-4.465-3.618-8.084-8.084-8.084
				c-4.466,0-8.084,3.62-8.084,8.084v158.99H167.074v-29.642c0-4.465-3.618-8.084-8.084-8.084c-4.466,0-8.084,3.62-8.084,8.084
				v29.642H59.284v-51.2c0-4.465-3.619-8.084-8.084-8.084s-8.084,3.62-8.084,8.084v134.737c0,16.345,13.298,29.642,29.642,29.642
				h121.263v32.337h-35.032c-16.344,0-29.642,13.297-29.642,29.642v24.253h-45.81c-4.466,0-8.084,3.62-8.084,8.084
				c0,4.465,3.619,8.084,8.084,8.084h258.695c4.466,0,8.084-3.62,8.084-8.084c0-4.465-3.618-8.084-8.084-8.084H145.516v-24.253
				c0-7.43,6.044-13.474,13.474-13.474h237.137c7.43,0,13.474,6.044,13.474,13.474v24.253h-35.032c-4.466,0-8.084,3.62-8.084,8.084
				c0,4.465,3.619,8.084,8.084,8.084h97.01c4.466,0,8.084-3.62,8.084-8.084c0-4.465-3.618-8.084-8.084-8.084h-45.81v-24.253
				c0-16.345-13.298-29.642-29.642-29.642h-35.032V409.6h121.263c16.344,0,29.642-13.297,29.642-29.642V132.042
				C512,115.697,498.702,102.4,482.358,102.4z M150.905,393.432H72.758c-7.43,0-13.474-6.044-13.474-13.474v-67.368h91.621V393.432z
				 M344.926,441.937H210.189V409.6h134.737V441.937z M388.042,393.432h-102.4v-61.979c0-4.465-3.618-8.084-8.084-8.084
				c-4.466,0-8.084,3.62-8.084,8.084v61.979h-102.4v-80.842h220.968V393.432z"/>
			<path d="M242.526,121.263C242.526,54.398,188.128,0,121.263,0S0,54.398,0,121.263s54.398,121.263,121.263,121.263
				S242.526,188.128,242.526,121.263z M129.347,16.477c54.187,4.141,97.011,49.556,97.011,104.786
				c0,16.286-3.724,31.718-10.364,45.49l-46.916-27.211c2.18-5.682,3.386-11.841,3.386-18.279c0-6.436-1.205-12.594-3.384-18.274
				c0.003-0.002,0.008-0.003,0.012-0.005l21.893-12.641c3.866-2.232,5.191-7.177,2.959-11.043
				c-2.233-3.866-7.178-5.191-11.043-2.959l-21.893,12.64c-0.01,0.005-0.017,0.012-0.026,0.017
				c-7.781-9.561-18.935-16.269-31.634-18.292V16.477z M156.295,121.263c0,19.316-15.715,35.032-35.032,35.032
				s-35.032-15.716-35.032-35.032s15.715-35.032,35.032-35.032C140.58,86.232,156.295,101.947,156.295,121.263z M16.168,121.263
				c0-55.23,42.824-100.645,97.01-104.786v54.231c-12.699,2.023-23.852,8.731-31.633,18.291l-21.92-12.657
				c-3.865-2.233-8.812-0.909-11.043,2.959c-2.232,3.866-0.908,8.811,2.959,11.043l21.904,12.647
				c-2.177,5.679-3.382,11.836-3.382,18.272s1.205,12.593,3.383,18.272l-19.472,11.242c-3.866,2.232-5.191,7.177-2.959,11.043
				c1.497,2.593,4.215,4.043,7.008,4.043c1.371,0,2.763-0.349,4.035-1.084l19.488-11.251c7.781,9.56,18.934,16.268,31.633,18.291
				v25.284c0,4.465,3.618,8.084,8.084,8.084c4.466,0,8.084-3.62,8.084-8.084V171.82c12.695-2.023,23.847-8.728,31.629-18.285
				l46.89,27.196c-18.969,27.537-50.711,45.627-86.603,45.627C63.313,226.358,16.168,179.213,16.168,121.263z"/>
		</g>
	</g>
</g>
<g>
</g>
<g>
</g>
<g>
</g>
<g>
</g>
<g>
</g>
<g>
</g>
<g>
</g>
<g>
</g>
<g>
</g>
<g>
</g>
<g>
</g>
<g>
</g>
<g>
</g>
<g>
</g>
<g>
</g>
</svg>
