<svg width="59" height="59" viewBox="0 0 59 59" fill="none" xmlns="http://www.w3.org/2000/svg">
<circle cx="29.5" cy="29.5" r="29.5" fill="#FEE500"/>
<path d="M29.5854 14.2378C20.4073 14.2378 13.0056 20.1591 13.0056 27.3476C13.0056 32.0136 16.0847 36.0993 20.7033 38.4323L19.1401 44.2708C19.1106 44.3583 19.1061 44.4522 19.127 44.5421C19.1479 44.6321 19.1935 44.7144 19.2585 44.7799C19.3534 44.8636 19.4755 44.9099 19.602 44.9102C19.7069 44.9018 19.8064 44.8603 19.8862 44.7918L26.6128 40.2561C27.6058 40.3932 28.6067 40.4643 29.609 40.4692C38.7753 40.4692 46.1888 34.5479 46.1888 27.3476C46.1888 20.1472 38.7516 14.2378 29.5854 14.2378Z" fill="#392020"/>
<path d="M18.8081 25.2752H16.9962C16.7716 25.2817 16.5498 25.2242 16.3567 25.1093C16.2709 25.0556 16.1972 24.9847 16.1401 24.9012C16.0831 24.8176 16.0439 24.7232 16.0251 24.6238C16.0193 24.5607 16.0193 24.4974 16.0251 24.4344C16.0194 24.3164 16.0423 24.1988 16.0918 24.0916C16.1413 23.9844 16.2159 23.8908 16.3093 23.8185C16.5158 23.669 16.7649 23.59 17.0198 23.5935H22.4793C22.7057 23.5855 22.929 23.6476 23.1188 23.7711C23.2066 23.8225 23.2819 23.8927 23.3392 23.9767C23.3965 24.0607 23.4345 24.1563 23.4504 24.2567C23.4562 24.3158 23.4562 24.3753 23.4504 24.4344C23.456 24.554 23.4332 24.6732 23.3838 24.7823C23.3343 24.8914 23.2598 24.9872 23.1662 25.0619C22.9648 25.2113 22.718 25.2866 22.4675 25.2752H20.7148V31.5044C20.7219 31.6371 20.7013 31.7698 20.6545 31.8942C20.6076 32.0185 20.5353 32.1318 20.4424 32.2268C20.3532 32.3176 20.2461 32.3888 20.1278 32.4357C20.0095 32.4826 19.8827 32.5042 19.7555 32.4992C19.5331 32.5055 19.3154 32.4344 19.1397 32.2979C18.9724 32.1646 18.8589 31.9753 18.8199 31.7649C18.8082 31.6785 18.8082 31.5909 18.8199 31.5044L18.8081 25.2752Z" fill="#FEE500"/>
<path d="M23.9731 24.0554C24.0251 23.8605 24.1475 23.6918 24.3165 23.5817C24.4966 23.4796 24.7018 23.4303 24.9086 23.4396H25.3587C25.5781 23.4317 25.7954 23.485 25.9863 23.5935C26.1886 23.7296 26.3323 23.9367 26.389 24.1738L28.7575 30.8649C28.8189 31.0395 28.8703 31.2175 28.9115 31.398C28.9155 31.4729 28.9155 31.5479 28.9115 31.6229C28.9155 31.7383 28.8942 31.8532 28.8492 31.9596C28.8042 32.0659 28.7365 32.1612 28.6509 32.2387C28.5679 32.3238 28.4683 32.3908 28.3583 32.4356C28.2483 32.4805 28.1302 32.5021 28.0114 32.4992C27.8288 32.5174 27.6453 32.4736 27.4906 32.3748C27.3359 32.2759 27.219 32.1279 27.1587 31.9545L26.6613 30.4979H23.5467L23.0493 31.9545C22.9905 32.1313 22.8722 32.2822 22.7145 32.3816C22.5569 32.4809 22.3697 32.5225 22.1848 32.4992C21.9846 32.5045 21.7884 32.4419 21.6282 32.3216C21.4721 32.1975 21.3668 32.0206 21.3321 31.8243C21.3259 31.7573 21.3259 31.6899 21.3321 31.6229C21.3118 31.5053 21.3118 31.3853 21.3321 31.2677C21.3321 31.1374 21.415 30.9952 21.4624 30.8649L23.9731 24.0554ZM25.1573 25.6069L24.0323 29.1597H26.2705L25.1573 25.6069Z" fill="#FEE500"/>
<path d="M29.1827 24.4344C29.1706 24.1686 29.2643 23.9089 29.4432 23.712C29.5341 23.6202 29.6433 23.5485 29.7637 23.5016C29.884 23.4547 30.0129 23.4335 30.1419 23.4395C30.3638 23.4369 30.5803 23.5077 30.7577 23.6408C30.9222 23.7798 31.0315 23.973 31.0657 24.1856C31.0773 24.268 31.0773 24.3519 31.0657 24.4344V30.6636H34.3224C34.5481 30.6607 34.77 30.7222 34.9619 30.8411C35.0481 30.8943 35.1222 30.9651 35.1793 31.0487C35.2364 31.1324 35.2753 31.2271 35.2935 31.3267C35.2935 31.3267 35.2935 31.4452 35.2935 31.5044C35.2991 31.6223 35.2762 31.7398 35.2267 31.847C35.1773 31.9542 35.1027 32.048 35.0093 32.1202C34.8028 32.2698 34.5536 32.3486 34.2987 32.3452H30.2959C30.0409 32.3616 29.7875 32.2952 29.5735 32.1558C29.382 32.0126 29.2544 31.8 29.2182 31.5637C29.2095 31.4335 29.2095 31.3029 29.2182 31.1728L29.1827 24.4344Z" fill="#FEE500"/>
<path d="M35.5068 24.4345C35.4997 24.1695 35.5928 23.9116 35.7674 23.7121C35.9449 23.5508 36.1725 23.4556 36.412 23.4426C36.6515 23.4297 36.8881 23.4998 37.0819 23.641C37.25 23.7787 37.3634 23.9718 37.4017 24.1857C37.4075 24.2685 37.4075 24.3517 37.4017 24.4345V27.3359L40.3978 23.8778C40.5133 23.7598 40.6359 23.6492 40.765 23.5463C40.8866 23.4739 41.0261 23.4368 41.1676 23.4396C41.3746 23.4385 41.577 23.5005 41.7479 23.6173C41.8284 23.6715 41.8972 23.7414 41.9501 23.8228C42.003 23.9042 42.039 23.9954 42.0558 24.091C42.0606 24.1144 42.0606 24.1387 42.0558 24.1621C42.0501 24.1895 42.0501 24.2176 42.0558 24.245C42.0554 24.3696 42.0228 24.492 41.9611 24.6003C41.8982 24.7149 41.8228 24.8221 41.7361 24.9199L39.7702 27.0754L42.1387 30.7466V30.865C42.2617 31.0347 42.3576 31.2226 42.4229 31.4217V31.4808C42.4366 31.618 42.4169 31.7566 42.3653 31.8844C42.3137 32.0123 42.2319 32.1257 42.1269 32.2151C41.9293 32.3644 41.6876 32.4436 41.44 32.4401C41.2755 32.4469 41.1121 32.4101 40.9663 32.3335C40.8086 32.2277 40.6786 32.0855 40.5873 31.919L38.3846 28.3662L37.3306 29.4676V31.4453C37.3377 31.7103 37.2447 31.9682 37.0701 32.1676C36.9765 32.2591 36.8652 32.3306 36.743 32.3774C36.6208 32.4242 36.4903 32.4456 36.3595 32.4401C36.141 32.4447 35.9276 32.3735 35.7555 32.2388C35.5882 32.1054 35.4747 31.9163 35.4358 31.7059C35.4241 31.6195 35.4241 31.5317 35.4358 31.4453L35.5068 24.4345Z" fill="#FEE500"/>
</svg>
