<?xml version="1.0" encoding="UTF-8"?>
<svg id="_레이어_2" data-name="레이어 2" xmlns="http://www.w3.org/2000/svg" xmlns:xlink="http://www.w3.org/1999/xlink" viewBox="0 0 31.79 31.92">
  <defs>
    <style>
      .cls-1 {
        fill: url(#_무제_그라디언트_221);
      }
    </style>
    <linearGradient id="_무제_그라디언트_221" data-name="무제 그라디언트 221" x1="7.9" y1="2.18" x2="23.83" y2="29.78" gradientUnits="userSpaceOnUse">
      <stop offset="0" stop-color="#65ba64"/>
      <stop offset="1" stop-color="#003b1b"/>
    </linearGradient>
  </defs>
  <g id="_레이어_1-2" data-name="레이어 1">
    <path class="cls-1" d="m8.43,20.67c3.27-2.47,6.68-4.68,10.78-5.54.01-.23-.14-.26-.25-.32-2.38-1.29-4.87-1.66-7.51-.91-2.21.62-3.9,1.99-5.35,3.7-.88,1.04-1.76,2.08-2.76,3.02-.49.47-1.04.85-1.67,1.11-.53.21-.63.17-.81-.37C.21,19.47-.08,17.52.02,15.54c.12-2.41.64-4.73,1.83-6.86C4.54,3.88,8.52.79,14.04.12c4.22-.51,8.08.66,11.48,3.31,3.42,2.66,5.56,6.09,6.11,10.37.74,5.77-1.06,10.64-5.56,14.44-.74.62-1.56,1.1-2.38,1.61-.33.21-.45.09-.47-.25-.14-2.03-.28-4.06-.43-6.09-.14-1.93-.27-3.86-.43-5.78-.05-.64-.51-.88-1.13-.65-.23.09-.22.27-.23.46-.07,1.19-.13,2.38-.19,3.58-.17,3.17-.36,6.34-.52,9.52-.03.58-.29.82-.83.92-5.49,1.07-10.34-.14-14.48-3.98-1.19-1.11-2.19-2.37-3.01-3.77-.09-.16-.17-.33-.25-.49-.02-.04,0-.09,0-.15.21-.08.36.07.51.14,2.92,1.4,5.98,1.97,9.22,1.61,3.98-.44,7.26-3.39,8.1-7.31.06-.29.3-.69.1-.85-.24-.2-.58.12-.86.24-2.87,1.2-5.69,2.53-8.69,3.39-.54.15-1.07.31-1.61.47-.02-.06-.04-.11-.06-.17Zm20.66-1.45c.35,0,.7,0,1.06,0,.14,0,.34.06.41-.1.08-.17-.12-.26-.21-.36-.63-.65-1.25-1.31-1.89-1.95-1.12-1.11-2.39-1.86-4.06-1.82-.62.02-.8.37-1.01.8-.18.37.21.47.34.69.07.11.17.2.25.31,1.26,1.74,2.94,2.6,5.11,2.43Zm-4.87-11.51c.08-.84-.18-1.7-.22-2.57,0-.11,0-.26-.13-.3-.13-.04-.2.09-.29.17-.42.39-.8.81-1.15,1.26-1.3,1.66-1.96,3.47-1.28,5.58.06.18.04.48.32.43.36-.06.75.25,1.08-.15,1.07-1.27,1.83-2.66,1.68-4.42Zm-3.83,7c0,.71.54,1.27,1.22,1.27.68,0,1.2-.58,1.19-1.31,0-.71-.5-1.18-1.23-1.18-.71,0-1.18.48-1.18,1.22Z"/>
  </g>
</svg>