<svg width="55" height="54" viewBox="0 0 55 54" fill="none" xmlns="http://www.w3.org/2000/svg">
<path d="M19.2196 21.9495C19.4055 22.1354 19.6936 22.2283 20.0654 22.2283H35.577C35.8558 22.2283 36.1439 22.1354 36.4227 21.9495C42.5381 16.2802 41.2184 6.52153 34.1643 2.43219C34.1023 2.37023 34.0404 2.33925 33.9784 2.33925C32.101 1.31691 30.0285 0.759277 27.7701 0.759277C25.6046 0.759277 23.4484 1.31691 21.5617 2.43219C21.5617 2.43219 21.4688 2.43219 21.4688 2.52513C14.4146 6.52153 13.1971 16.2802 19.2103 21.9495H19.2196ZM21.7569 5.03449L22.5097 6.42859C22.6956 6.80034 23.1695 6.98622 23.5413 6.98622C24.3871 6.98622 25.0469 6.05683 24.5729 5.22037L23.8201 3.82628C24.6659 3.45452 25.6046 3.1757 26.6362 3.08276V4.66274C26.6362 5.31331 27.2031 5.87095 27.863 5.87095C28.5229 5.87095 29.0898 5.31331 29.0898 4.66274V3.08276C30.1214 3.1757 31.0601 3.45452 31.9059 3.82628L31.1531 5.22037C30.8742 5.77801 31.0601 6.52153 31.627 6.80034C32.194 7.07916 32.9468 6.89328 33.2256 6.33565L33.9784 4.94155C34.7312 5.49919 35.484 6.24271 36.051 6.98622L34.6383 7.72974C34.0714 8.00856 33.8855 8.75207 34.1643 9.30971C34.4431 9.86735 35.1959 10.0532 35.7628 9.77441L37.1755 9.03089C37.5473 9.86735 37.8354 10.7967 37.9283 11.8191H36.2368C35.577 11.8191 35.01 12.3767 35.01 13.0273C35.01 13.6779 35.577 14.2355 36.2368 14.2355H37.8354C37.7425 15.2578 37.4636 16.1872 37.0826 17.1166L35.6699 16.2802C35.103 16.0014 34.3502 16.1872 34.0714 16.7449C33.7925 17.3025 33.9784 18.046 34.5453 18.3248L35.958 19.1613C35.6792 19.5331 35.3911 19.8119 35.1123 20.0907H20.5394C20.2605 19.8119 19.9724 19.4401 19.6936 19.1613L21.1063 18.3248C21.6732 18.046 21.8591 17.3025 21.5803 16.7449C21.3015 16.1872 20.5487 16.0014 19.9817 16.2802L18.569 17.1166C18.188 16.1872 17.9092 15.2578 17.8162 14.2355H19.3219C19.9817 14.2355 20.5394 13.6779 20.5394 13.0273C20.5394 12.3767 19.9724 11.8191 19.3219 11.8191H17.7233C17.8162 10.8897 18.095 9.96029 18.4761 9.03089L19.8888 9.77441C20.4557 10.0532 21.2085 9.86735 21.4873 9.30971C21.7662 8.75207 21.5803 8.00856 21.0134 7.72974L19.6007 6.98622C20.2605 6.24271 21.0134 5.59213 21.7662 5.03449H21.7569Z" fill="white"/>
<path d="M27.7699 15.7226C29.2755 15.7226 30.493 14.5144 30.493 13.0274C30.493 11.9121 29.8331 10.9827 28.8944 10.518V8.47335C28.8944 7.82277 28.3275 7.26514 27.6769 7.26514C27.0263 7.26514 26.4501 7.82277 26.4501 8.47335V10.518C25.5114 10.9827 24.8516 11.9121 24.8516 12.9344C25.0374 14.5144 26.2642 15.7226 27.7699 15.7226ZM27.7699 13.3991C27.584 13.3991 27.3981 13.2133 27.3981 13.0274C27.3981 12.8415 27.584 12.6556 27.7699 12.6556C27.9557 12.6556 28.1509 12.8415 28.1509 13.0274C28.1509 13.2133 27.965 13.3991 27.7699 13.3991Z" fill="white"/>
<path d="M13.6711 48.9948C13.6711 48.3443 13.1042 47.7866 12.4536 47.7866H1.92358C1.26371 47.7866 0.696777 48.3443 0.696777 48.9948C0.696777 49.6454 1.26371 50.2031 1.92358 50.2031H12.5466C13.1135 50.2031 13.6711 49.6454 13.6711 48.9948Z" fill="white"/>
<path d="M1.92358 46.6713H6.62632C7.28619 46.6713 7.85312 46.1137 7.85312 45.4631C7.85312 44.8125 7.28619 44.2549 6.62632 44.2549H1.92358C1.26371 44.2549 0.696777 44.8125 0.696777 45.4631C0.789717 46.1137 1.26371 46.6713 1.92358 46.6713Z" fill="white"/>
<path d="M53.626 47.8799H43.0959C42.4361 47.8799 41.8691 48.4375 41.8691 49.0881C41.8691 49.7387 42.4361 50.2963 43.0959 50.2963H53.7189C54.3788 50.2963 54.9457 49.7387 54.9457 49.0881C54.8528 48.3446 54.2859 47.8799 53.626 47.8799Z" fill="white"/>
<path d="M53.6258 44.3481H48.9231C48.2632 44.3481 47.7056 44.9058 47.7056 45.5564C47.7056 46.2069 48.2725 46.7646 48.9231 46.7646H53.6258C54.2857 46.7646 54.8433 46.2069 54.8433 45.5564C54.8433 44.9058 54.2764 44.3481 53.6258 44.3481Z" fill="white"/>
<path d="M50.8101 7.17204H41.8786C41.2187 7.17204 40.6611 7.72968 40.6611 8.38025C40.6611 9.03083 41.228 9.58847 41.8786 9.58847H50.8101C51.6558 9.58847 52.4086 10.332 52.4086 11.1684V32.8233H14.796C14.1362 32.8233 13.5785 33.381 13.5785 34.0316C13.5785 34.6821 14.1454 35.2398 14.796 35.2398H52.3993V38.7715C52.3993 39.6079 51.6465 40.3514 50.8008 40.3514H4.64703C3.80128 40.3514 3.04847 39.6079 3.04847 38.7715V35.0539H9.81447C10.4743 35.0539 10.939 34.4963 10.939 33.8457C10.939 33.1951 10.3721 32.6375 9.81447 32.6375H3.04847V11.0755C3.04847 10.239 3.80128 9.49553 4.64703 9.49553H13.6715C14.3313 9.49553 14.8983 8.93789 14.8983 8.28732C14.8983 7.63674 14.3313 7.0791 13.6715 7.0791H4.73997C2.57448 7.0791 0.790039 8.84495 0.790039 10.9826V38.4927C0.790039 40.6303 2.57448 42.3961 4.73997 42.3961H19.4988L16.8686 51.2254H12.0729C11.413 51.2254 10.8554 51.783 10.8554 52.4336C10.8554 53.0842 11.4223 53.6418 12.0729 53.6418H41.4046C42.0645 53.6418 42.6314 53.0842 42.6314 52.4336C42.6314 51.783 42.0645 51.2254 41.4046 51.2254H36.6089L33.9787 42.4891H50.903C53.0685 42.4891 54.853 40.7232 54.853 38.5856V11.0755C54.853 8.93789 53.0685 7.17204 50.8101 7.17204ZM34.1646 51.3183H19.3129L21.9431 42.4891H31.5344L34.1646 51.3183Z" fill="white"/>
<path d="M6.61692 15.3505H10.1858C10.8457 15.3505 11.4033 14.7929 11.4033 14.1423C11.4033 13.4917 10.8364 12.9341 10.1858 12.9341H6.61692C5.95705 12.9341 5.39941 13.4917 5.39941 14.1423C5.49235 14.7929 5.96634 15.3505 6.61692 15.3505Z" fill="white"/>
<path d="M6.61692 18.7895H11.3197C11.9795 18.7895 12.5372 18.2318 12.5372 17.5813C12.5372 16.9307 11.9702 16.373 11.3197 16.373H6.61692C5.95705 16.373 5.39941 16.9307 5.39941 17.5813C5.49235 18.2318 5.96634 18.7895 6.61692 18.7895Z" fill="white"/>
<path d="M6.61692 22.3212H12.5372C13.197 22.3212 13.764 21.7636 13.764 21.113C13.764 20.4624 13.197 19.9048 12.5372 19.9048H6.61692C5.95705 19.9048 5.39941 20.4624 5.39941 21.113C5.49235 21.7636 5.96634 22.3212 6.61692 22.3212Z" fill="white"/>
<path d="M6.61692 25.7602H13.671C14.3309 25.7602 14.8978 25.2025 14.8978 24.552C14.8978 23.9014 14.3309 23.3438 13.671 23.3438H6.61692C5.95705 23.3438 5.39941 23.9014 5.39941 24.552C5.49235 25.2025 5.96635 25.7602 6.61692 25.7602Z" fill="white"/>
<path d="M48.9231 15.3505C49.583 15.3505 50.1499 14.7929 50.1499 14.1423C50.1499 13.4917 49.583 12.9341 48.9231 12.9341H45.3542C44.6944 12.9341 44.1274 13.4917 44.1274 14.1423C44.1274 14.7929 44.6944 15.3505 45.3542 15.3505H48.9231Z" fill="white"/>
<path d="M43.0957 17.674C43.0957 18.3246 43.6626 18.8822 44.3225 18.8822H49.0252C49.6851 18.8822 50.252 18.3246 50.252 17.674C50.252 17.0235 49.6851 16.4658 49.0252 16.4658H44.3225C43.5697 16.4658 43.0957 17.0235 43.0957 17.674Z" fill="white"/>
<path d="M41.8784 21.113C41.8784 21.7636 42.4453 22.3212 43.1052 22.3212H49.0255C49.6853 22.3212 50.2523 21.7636 50.2523 21.113C50.2523 20.4624 49.6853 19.9048 49.0255 19.9048H43.1052C42.4453 19.9977 41.8784 20.4624 41.8784 21.113Z" fill="white"/>
<path d="M40.7446 24.6447C40.7446 25.2953 41.3116 25.853 41.9714 25.853H49.0255C49.6854 25.853 50.2523 25.2953 50.2523 24.6447C50.2523 23.9942 49.6854 23.4365 49.0255 23.4365H41.8785C41.2186 23.4365 40.7539 23.9942 40.7539 24.6447H40.7446Z" fill="white"/>
<path d="M26.6457 36.2617C27.3242 36.2617 27.8725 36.8008 27.8725 37.4699C27.8725 38.1391 27.3242 38.6781 26.6457 38.6781C25.9673 38.6781 25.4282 38.1391 25.4282 37.4699C25.4282 36.8008 25.9766 36.2617 26.6457 36.2617Z" fill="white"/>
</svg>
