<?xml version="1.0" encoding="UTF-8"?>
<svg xmlns="http://www.w3.org/2000/svg" id="Outline" viewBox="0 0 64 64" width="512" height="512"><g><path d="M58.5,0h-32a4,4,0,0,0-4,4v8.479A16.995,16.995,0,0,0,1.5,29,17.042,17.042,0,0,0,8.53,42.768a7.338,7.338,0,0,1,2.943,5.525A1.994,1.994,0,0,0,10.5,50v6a1.993,1.993,0,0,0,1.041,1.744,7,7,0,0,0,13.918,0A1.993,1.993,0,0,0,26.5,56V50a2,2,0,0,0-.971-1.706,7.814,7.814,0,0,1,3.2-5.718A17.034,17.034,0,0,0,35.463,30H41.5V44.059A9.012,9.012,0,0,0,33.559,52H29.5a1,1,0,0,0,0,2h4.059A9,9,0,1,0,43.5,44.059V30h15a4,4,0,0,0,4-4V4A4,4,0,0,0,58.5,0Zm-9,53a7,7,0,1,1-7-7A7.008,7.008,0,0,1,49.5,53Zm-34-15H14a1.5,1.5,0,1,1,1.5-1.5Zm9,12v2h-12V50Zm0,6h-12V54h12Zm-6,6a5.008,5.008,0,0,1-4.9-4h9.8A5.008,5.008,0,0,1,18.5,62Zm9.027-21.021a9.824,9.824,0,0,0-4,7.021H21.5V40H23a3.5,3.5,0,1,0-3.5-3.5V48h-2V36.5A3.5,3.5,0,1,0,14,40h1.5v8H13.47A9.339,9.339,0,0,0,9.7,41.148,15.036,15.036,0,0,1,3.5,29,14.959,14.959,0,0,1,23.1,14.737c.01,0,.022.005.033.01a14.927,14.927,0,0,1,3.723,1.825.99.99,0,0,0,.269.173,15.174,15.174,0,0,1,3.618,3.639,1.008,1.008,0,0,0,.247.344,15.035,15.035,0,0,1,1.584,3.149v0a14.778,14.778,0,0,1,.916,4.726A15.036,15.036,0,0,1,27.527,40.979ZM21.5,38V36.5A1.5,1.5,0,1,1,23,38Zm17-32V9h-4V6Zm6,0V9h-4V6Zm6,0V9h-4V6Zm6,0V9h-4V6Zm-10,18V21h4v3Zm-6,0V21h4v3Zm-5.763,0c-.072-.232-.155-.459-.237-.686V21h4v3ZM40.5,16h4v3h-4Zm-2,3h-4V16h4Zm8-3h4v3h-4Zm6,0h4v3h-4Zm4-2h-4V11h4Zm-6,0h-4V11h4Zm-6,0h-4V11h4Zm-6,0h-4V11h4Zm-6,0h-4V11h4Zm0,2v3h-.294a17.231,17.231,0,0,0-2.786-3Zm20,5h4v3h-4ZM32.5,9h-4V6h4Zm28,17a2,2,0,0,1-2,2H35.454a16.882,16.882,0,0,0-.239-2H57.5a1,1,0,0,0,1-1V5a1,1,0,0,0-1-1h-30a1,1,0,0,0-1,1v9.027a17.066,17.066,0,0,0-2-.916V4a2,2,0,0,1,2-2h32a2,2,0,0,1,2,2Z"/><path d="M18.5,18a7,7,0,1,0,7,7A7.008,7.008,0,0,0,18.5,18Zm0,12a5,5,0,1,1,5-5A5.006,5.006,0,0,1,18.5,30Z"/><path d="M20.5,24a1,1,0,0,0-1,1,1,1,0,0,1-1,1,1,1,0,0,0,0,2,3,3,0,0,0,3-3A1,1,0,0,0,20.5,24Z"/><path d="M41.605,48.553l-2,4A1,1,0,0,0,40.5,54h2.382l-1.277,2.553a1,1,0,0,0,1.79.894l2-4A1,1,0,0,0,44.5,52H42.118L43.4,49.447a1,1,0,0,0-1.79-.894Z"/></g></svg>
