<svg width="53" height="57" viewBox="0 0 53 57" fill="none" xmlns="http://www.w3.org/2000/svg">
<g clip-path="url(#clip0_14_626)">
<path d="M29.4904 18.8711C30.0374 18.3338 30.0374 17.474 29.4904 16.9367C28.9433 16.3994 28.0852 16.3994 27.5382 16.9367C26.9912 17.474 26.9912 18.3338 27.5382 18.8711C27.86 19.1935 28.9541 19.4085 29.4904 18.8711Z" fill="white"/>
<path d="M53.0455 42.1921V13.9278C55.3195 13.9278 57.1644 12.1008 57.1644 9.84398C57.1644 7.58713 55.2122 5.86763 53.0455 5.86763H31.3465V4.47054C31.3465 2.21369 29.5016 0.386719 27.2277 0.386719C24.9537 0.386719 23.1088 2.21369 23.1088 4.47054V5.86763H1.38837C-0.885571 5.86763 -2.73047 7.6946 -2.73047 9.95145C-2.73047 12.2083 -0.885571 14.0353 1.38837 14.0353V42.2996C-0.885571 42.2996 -2.73047 44.1266 -2.73047 46.3834C-2.73047 48.6403 -0.885571 50.4672 1.38837 50.4672H24.278L15.268 61.429C14.839 61.9664 14.9462 62.8261 15.4825 63.3635C16.0296 63.7934 16.8877 63.6859 17.4347 63.1486L25.8976 52.7241V60.9992C25.8976 61.7515 26.5519 62.3963 27.3028 62.3963C28.0536 62.3963 28.7079 61.7515 28.7079 60.9992V52.7241L37.1708 63.1486C37.5999 63.6859 38.4687 63.7934 39.123 63.3635C39.67 62.9336 39.7773 62.0739 39.3375 61.429L30.2203 50.1448H53.1099C55.3838 50.1448 57.2287 48.3178 57.2287 46.061C57.2287 43.8041 55.1693 42.1921 52.9919 42.1921H53.0455ZM0.0905089 9.95145C0.0905089 9.19917 0.744804 8.55435 1.50636 8.55435H24.6212C25.3828 8.55435 26.0263 7.90954 26.0263 7.15726V4.47054C26.0263 3.71825 26.6806 3.07344 27.4315 3.07344C28.1823 3.07344 28.8366 3.71825 28.8366 4.47054V7.15726C28.8366 7.90954 29.4909 8.55435 30.2524 8.55435H53.3673C54.1289 8.55435 54.7724 9.19917 54.7724 9.95145C54.7724 10.7037 54.1181 11.3485 53.3673 11.3485H1.82815C0.744804 11.2411 0.0905089 10.5963 0.0905089 9.95145ZM4.20935 13.9278H50.3211V16.6145H32.6337C31.8721 16.6145 31.2285 17.2593 31.2285 18.0116C31.2285 18.7639 31.8828 19.4087 32.6337 19.4087H50.3211V42.2996H4.20935V13.9278ZM53.0348 47.5656H1.50636C0.744804 47.5656 0.0905089 46.9207 0.0905089 46.1685C0.0905089 45.4162 0.744804 44.7714 1.50636 44.7714H53.0455C53.8071 44.7714 54.4506 45.4162 54.4506 46.1685C54.4506 46.9207 53.6891 47.5656 53.0455 47.5656H53.0348Z" fill="white"/>
<path d="M43.4885 21.9879H39.4769C38.7153 21.9879 38.0718 22.6327 38.0718 23.385C38.0718 24.1372 38.726 24.7821 39.4769 24.7821H40.2384L32.5371 32.4124C31.6682 31.6601 30.4776 31.3377 29.287 31.5526L25.0502 27.3613C25.5972 26.7165 26.0263 25.7493 26.0263 24.7821C26.0263 22.5252 24.1814 20.6982 21.9074 20.6982C19.6335 20.6982 17.7886 22.5252 17.7886 24.7821C17.7886 25.8568 18.2177 26.9314 18.9792 27.6837L15.7185 32.0899C15.1714 31.7675 14.4206 31.5526 13.7663 31.5526C11.4924 31.5526 9.64746 33.3796 9.64746 35.6364C9.64746 37.8933 11.4924 39.7202 13.7663 39.7202C16.5873 39.7202 18.5394 36.8186 17.5634 34.2393C21.5749 28.8659 21.4677 29.1883 21.5749 28.9733H22.6583L26.8951 33.1646C26.3481 33.8094 25.919 34.7767 25.919 35.7439C25.919 38.0007 27.7639 39.8277 30.0379 39.8277C32.5371 39.8277 34.4892 37.5709 34.0494 35.0991L42.2979 26.9314V27.3613C42.2979 28.1136 42.9522 28.7584 43.703 28.7584C44.4538 28.7584 45.1081 28.1136 45.1081 27.3613V23.385C44.8936 22.6327 44.2393 21.9879 43.4777 21.9879H43.4885ZM13.6483 36.8186C12.8868 36.8186 12.2325 36.1738 12.2325 35.4215C12.2325 34.6692 12.8868 34.0244 13.6483 34.0244C14.4099 34.0244 15.0534 34.6692 15.0534 35.4215C15.0534 36.1738 14.3991 36.8186 13.6483 36.8186ZM21.7895 23.385C22.551 23.385 23.1946 24.0298 23.1946 24.7821C23.1946 25.5343 22.5403 26.1792 21.7895 26.1792C21.0386 26.1792 20.3843 25.5343 20.3843 24.7821C20.3843 24.0298 21.0386 23.385 21.7895 23.385ZM29.9306 36.8186C29.1691 36.8186 28.5255 36.1738 28.5255 35.4215C28.5255 34.6692 29.1798 34.0244 29.9306 34.0244C30.6814 34.0244 31.3357 34.6692 31.3357 35.4215C31.3357 36.1738 30.6814 36.8186 29.9306 36.8186Z" fill="white"/>
<path d="M13.6589 54.229H8.23145V56.9157H13.6589V54.229Z" fill="white"/>
<path d="M53.0451 54.229H47.6177V56.9157H53.0451V54.229Z" fill="white"/>
</g>
<defs>
<clipPath id="clip0_14_626">
<rect width="52.8212" height="55.6764" fill="white" transform="translate(0.124512 0.386719)"/>
</clipPath>
</defs>
</svg>
